<svg width="55" height="55" viewBox="0 0 55 55" fill="none" xmlns="http://www.w3.org/2000/svg">
<g clip-path="url(#clip0_27_105)">
<path d="M54.1406 27.5C54.1406 42.1953 42.1953 54.1406 27.5 54.1406C12.8047 54.1406 0.859375 42.1953 0.859375 27.5C0.859375 12.8047 12.8047 0.859375 27.5 0.859375C42.1953 0.859375 54.1406 12.8047 54.1406 27.5Z" fill="#1A1918"/>
<path d="M27.9297 17.1445L34.8047 34.1602L24.4492 25.9531L27.9297 17.1445ZM40.1758 38.0703L29.6055 12.5469C29.3047 11.8164 28.7031 11.4297 27.9727 11.4297C27.2422 11.4297 26.5977 11.8164 26.2969 12.5469L14.6094 40.5195H18.6055L23.2031 29.0039L36.9531 40.1328C37.5117 40.5625 37.8984 40.7773 38.4141 40.7773C39.4453 40.7773 40.3477 40.0039 40.3477 38.8867C40.3906 38.6719 40.3047 38.3711 40.1758 38.0703Z" fill="white"/>
</g>
<defs>
<clipPath id="clip0_27_105">
<rect width="55" height="55" fill="white"/>
</clipPath>
</defs>
</svg>
