<svg width="43" height="43" viewBox="0 0 43 43" fill="none" xmlns="http://www.w3.org/2000/svg">
<path d="M36.995 18.5773H21.8232V24.8132H30.4904C30.1167 26.8288 28.9829 28.5337 27.2738 29.6759C25.8293 30.6417 23.9858 31.2128 21.819 31.2128C17.624 31.2128 14.0757 28.3783 12.8075 24.5696C12.4884 23.6038 12.3036 22.5708 12.3036 21.5084C12.3036 20.446 12.4884 19.413 12.8075 18.4472C14.0799 14.6427 17.6282 11.8082 21.8232 11.8082C24.1874 11.8082 26.308 12.6229 27.9793 14.2186L32.5984 9.59521C29.806 6.9917 26.1652 5.396 21.8232 5.396C15.5286 5.396 10.0822 9.00732 7.43252 14.2731C6.34072 16.4483 5.71924 18.9091 5.71924 21.5126C5.71924 24.1161 6.34072 26.5727 7.43252 28.7479C10.0822 34.0137 15.5286 37.625 21.8232 37.625C26.1736 37.625 29.8186 36.1805 32.4809 33.7197C35.5253 30.9146 37.2848 26.7826 37.2848 21.8737C37.2848 20.7315 37.184 19.6355 36.995 18.5773Z" fill="#757575"/>
</svg>
