<svg width="55" height="55" viewBox="0 0 55 55" fill="none" xmlns="http://www.w3.org/2000/svg">
<g clip-path="url(#clip0_27_114)">
<path d="M35.6423 1.01773L18.425 18.2969H27.6604C33.8777 18.2969 36.7125 24.1682 36.7125 27.4727V53.5313C36.7119 53.9199 36.8655 54.2928 37.1396 54.5682C37.4138 54.8436 37.786 54.999 38.1746 55.0002H53.4463C53.8348 54.9996 54.2073 54.8448 54.4819 54.5698C54.7564 54.2949 54.9106 53.9222 54.9106 53.5336C54.9198 45.9825 55 30.4382 55 18.2946C55 7.6544 46.5483 0.76565 38.225 0.0116917C37.2602 -0.0753916 36.3275 0.327942 35.6423 1.01773ZM0 1.4669C0 0.657942 0.66 0.000233392 1.47354 0.000233392H3.31604C4.12958 0.000233392 4.78958 0.657942 4.78958 1.4669V16.8669C4.78958 17.6759 4.12958 18.3336 3.31604 18.3336H1.47354C1.28036 18.3345 1.0889 18.2972 0.910161 18.2239C0.731423 18.1506 0.568926 18.0427 0.432005 17.9064C0.295083 17.7701 0.186434 17.6082 0.112297 17.4298C0.038161 17.2514 -2.12232e-06 17.0601 0 16.8669L0 1.4669ZM8.29125 0.000233392C8.09807 -0.000672163 7.90661 0.036596 7.72787 0.109897C7.54913 0.183199 7.38663 0.291089 7.24971 0.427372C7.11279 0.563655 7.00414 0.725645 6.93001 0.904039C6.85587 1.08243 6.81771 1.27371 6.81771 1.4669V16.8669C6.81771 17.6759 7.47771 18.3336 8.29125 18.3336H10.1337C10.3269 18.3345 10.5184 18.2972 10.6971 18.2239C10.8759 18.1506 11.0384 18.0427 11.1753 17.9064C11.3122 17.7701 11.4209 17.6082 11.495 17.4298C11.5691 17.2514 11.6073 17.0601 11.6073 16.8669V1.4669C11.6073 1.27371 11.5691 1.08243 11.495 0.904039C11.4209 0.725645 11.3122 0.563655 11.1753 0.427372C11.0384 0.291089 10.8759 0.183199 10.6971 0.109897C10.5184 0.036596 10.3269 -0.000672163 10.1337 0.000233392H8.29125ZM15.109 0.000233392C14.9158 -0.000672163 14.7243 0.036596 14.5456 0.109897C14.3668 0.183199 14.2043 0.291089 14.0674 0.427372C13.9305 0.563655 13.8219 0.725645 13.7477 0.904039C13.6736 1.08243 13.6354 1.27371 13.6354 1.4669V16.8669C13.6354 17.6759 14.2954 18.3336 15.109 18.3336H18.425L14.4971 22.2409C13.9471 22.7909 13.6354 23.5379 13.6354 24.3148V53.5336C13.6354 54.3448 14.2954 55.0002 15.109 55.0002H16.9515C17.1446 55.0011 17.3361 54.9639 17.5148 54.8906C17.6936 54.8173 17.8561 54.7094 17.993 54.5731C18.1299 54.4368 18.2386 54.2748 18.3127 54.0964C18.3868 53.918 18.425 53.7268 18.425 53.5336V1.4669C18.425 1.27371 18.3868 1.08243 18.3127 0.904039C18.2386 0.725645 18.1299 0.563655 17.993 0.427372C17.8561 0.291089 17.6936 0.183199 17.5148 0.109897C17.3361 0.036596 17.1446 -0.000672163 16.9515 0.000233392H15.109ZM0.863958 35.8075C0.311667 36.3575 0 37.1046 0 37.8815V53.5336C0 54.3448 0.66 55.0002 1.47354 55.0002H3.31604C3.50922 55.0011 3.70068 54.9639 3.87942 54.8906C4.05816 54.8173 4.22066 54.7094 4.35758 54.5731C4.4945 54.4368 4.60315 54.2748 4.67729 54.0964C4.75142 53.918 4.78959 53.7268 4.78958 53.5336V32.7848C4.78992 32.7119 4.76851 32.6406 4.7281 32.5799C4.68769 32.5192 4.63011 32.472 4.56272 32.4442C4.49532 32.4164 4.42117 32.4093 4.34973 32.4238C4.2783 32.4384 4.21282 32.4739 4.16167 32.5259L0.863958 35.8075ZM6.81771 31.0982C6.81771 30.319 7.12708 29.5742 7.68167 29.0242L10.9794 25.7425C11.0305 25.6906 11.096 25.6551 11.1674 25.6405C11.2389 25.626 11.313 25.633 11.3804 25.6608C11.4478 25.6886 11.5054 25.7359 11.5458 25.7966C11.5862 25.8572 11.6076 25.9286 11.6073 26.0015V53.5336C11.6073 54.3448 10.9473 55.0002 10.1337 55.0002H8.29125C8.09807 55.0011 7.90661 54.9639 7.72787 54.8906C7.54913 54.8173 7.38663 54.7094 7.24971 54.5731C7.11279 54.4368 7.00414 54.2748 6.93001 54.0964C6.85587 53.918 6.81771 53.7268 6.81771 53.5336V31.0982Z" fill="#AA52B3"/>
</g>
<defs>
<clipPath id="clip0_27_114">
<rect width="55" height="55" fill="white"/>
</clipPath>
</defs>
</svg>
