<svg width="53" height="53" viewBox="0 0 53 53" fill="none" xmlns="http://www.w3.org/2000/svg">
<path d="M41.0156 4.92188H11.4844C10.6141 4.92188 9.77953 5.26758 9.16418 5.88293C8.54883 6.49828 8.20313 7.33288 8.20312 8.20312V44.2969C8.20313 45.1671 8.54883 46.0017 9.16418 46.6171C9.77953 47.2324 10.6141 47.5781 11.4844 47.5781H41.0156C41.8859 47.5781 42.7205 47.2324 43.3358 46.6171C43.9512 46.0017 44.2969 45.1671 44.2969 44.2969V8.20312C44.2969 7.33288 43.9512 6.49828 43.3358 5.88293C42.7205 5.26758 41.8859 4.92188 41.0156 4.92188ZM25.4297 39.375C24.0837 39.3772 22.7544 39.0773 21.5398 38.4973C20.3252 37.9174 19.2563 37.0722 18.4119 36.024C18.145 35.6851 18.0223 35.2546 18.0705 34.8259C18.1186 34.3971 18.3337 34.0046 18.6692 33.7333C19.0047 33.462 19.4335 33.3338 19.8629 33.3764C20.2922 33.419 20.6875 33.629 20.9631 33.9609C21.5619 34.7017 22.3356 35.2819 23.2145 35.6493C24.0934 36.0166 25.0498 36.1595 25.9977 36.0651C26.9456 35.9707 27.8551 35.642 28.6443 35.1086C29.4335 34.5752 30.0776 33.8539 30.5186 33.0095C30.9595 32.1652 31.1836 31.2244 31.1704 30.272C31.1573 29.3195 30.9074 28.3853 30.4433 27.5534C29.9792 26.7216 29.3154 26.0183 28.5118 25.5068C27.7082 24.9954 26.79 24.6919 25.8398 24.6237C25.5387 24.6023 25.2493 24.4983 25.0035 24.323C24.7577 24.1477 24.565 23.9079 24.4467 23.6302C24.3284 23.3524 24.289 23.0474 24.3329 22.7487C24.3768 22.45 24.5023 22.1692 24.6955 21.9372L29.3057 16.4001H19.6875C19.2524 16.4001 18.8351 16.2272 18.5274 15.9196C18.2197 15.6119 18.0469 15.1946 18.0469 14.7595C18.0469 14.3244 18.2197 13.9071 18.5274 13.5994C18.8351 13.2917 19.2524 13.1188 19.6875 13.1188H32.8125C33.1243 13.1187 33.4298 13.2075 33.693 13.3747C33.9562 13.542 34.1663 13.7808 34.2986 14.0631C34.431 14.3455 34.4801 14.6597 34.4403 14.969C34.4005 15.2783 34.2733 15.5699 34.0737 15.8095L28.8996 22.0172C30.8283 22.8175 32.4197 24.2619 33.4025 26.1043C34.3854 27.9466 34.6989 30.0728 34.2896 32.1204C33.8803 34.168 32.7734 36.0103 31.1578 37.3332C29.5422 38.6561 27.5178 39.3777 25.4297 39.375Z" fill="#757575"/>
</svg>
