<svg width="43" height="43" viewBox="0 0 43 43" fill="none" xmlns="http://www.w3.org/2000/svg">
<path d="M24.1875 1.34375L0 25.5312L14.7812 40.3125L38.9688 16.125V1.34375H24.1875ZM30.9062 12.0938C30.3747 12.0938 29.8551 11.9361 29.4132 11.6408C28.9712 11.3455 28.6267 10.9258 28.4233 10.4347C28.2199 9.94364 28.1667 9.40327 28.2704 8.88194C28.3741 8.36062 28.63 7.88175 29.0059 7.5059C29.3818 7.13005 29.8606 6.87409 30.3819 6.77039C30.9033 6.66669 31.4436 6.71991 31.9347 6.92332C32.4258 7.12673 32.8455 7.4712 33.1408 7.91316C33.4361 8.35511 33.5938 8.87471 33.5938 9.40625C33.5938 10.119 33.3106 10.8026 32.8066 11.3066C32.3026 11.8106 31.619 12.0938 30.9062 12.0938Z" fill="#757575"/>
<path d="M40.3126 5.375V17.4688L18.2163 39.565L20.3243 41.6562L43.0001 18.8125V5.375H40.3126Z" fill="#757575"/>
</svg>
