<svg width="42" height="42" viewBox="0 0 42 42" fill="none" xmlns="http://www.w3.org/2000/svg">
<path d="M24.5 15.75H17.5C17.0359 15.75 16.5908 15.9344 16.2626 16.2626C15.9344 16.5908 15.75 17.0359 15.75 17.5V24.5C15.75 24.9641 15.9344 25.4092 16.2626 25.7374C16.5908 26.0656 17.0359 26.25 17.5 26.25H24.5C24.9641 26.25 25.4092 26.0656 25.7374 25.7374C26.0656 25.4092 26.25 24.9641 26.25 24.5V17.5C26.25 17.0359 26.0656 16.5908 25.7374 16.2626C25.4092 15.9344 24.9641 15.75 24.5 15.75ZM22.75 22.75H19.25V19.25H22.75V22.75ZM36.75 22.75C37.2141 22.75 37.6592 22.5656 37.9874 22.2374C38.3156 21.9092 38.5 21.4641 38.5 21C38.5 20.5359 38.3156 20.0908 37.9874 19.7626C37.6592 19.4344 37.2141 19.25 36.75 19.25H33.25V15.75H36.75C37.2141 15.75 37.6592 15.5656 37.9874 15.2374C38.3156 14.9092 38.5 14.4641 38.5 14C38.5 13.5359 38.3156 13.0908 37.9874 12.7626C37.6592 12.4344 37.2141 12.25 36.75 12.25H32.935C32.6737 11.5161 32.2523 10.8495 31.7014 10.2986C31.1505 9.74769 30.4839 9.32631 29.75 9.065V5.25C29.75 4.78587 29.5656 4.34075 29.2374 4.01256C28.9092 3.68437 28.4641 3.5 28 3.5C27.5359 3.5 27.0908 3.68437 26.7626 4.01256C26.4344 4.34075 26.25 4.78587 26.25 5.25V8.75H22.75V5.25C22.75 4.78587 22.5656 4.34075 22.2374 4.01256C21.9092 3.68437 21.4641 3.5 21 3.5C20.5359 3.5 20.0908 3.68437 19.7626 4.01256C19.4344 4.34075 19.25 4.78587 19.25 5.25V8.75H15.75V5.25C15.75 4.78587 15.5656 4.34075 15.2374 4.01256C14.9092 3.68437 14.4641 3.5 14 3.5C13.5359 3.5 13.0908 3.68437 12.7626 4.01256C12.4344 4.34075 12.25 4.78587 12.25 5.25V9.065C11.5161 9.32631 10.8495 9.74769 10.2986 10.2986C9.74769 10.8495 9.32631 11.5161 9.065 12.25H5.25C4.78587 12.25 4.34075 12.4344 4.01256 12.7626C3.68437 13.0908 3.5 13.5359 3.5 14C3.5 14.4641 3.68437 14.9092 4.01256 15.2374C4.34075 15.5656 4.78587 15.75 5.25 15.75H8.75V19.25H5.25C4.78587 19.25 4.34075 19.4344 4.01256 19.7626C3.68437 20.0908 3.5 20.5359 3.5 21C3.5 21.4641 3.68437 21.9092 4.01256 22.2374C4.34075 22.5656 4.78587 22.75 5.25 22.75H8.75V26.25H5.25C4.78587 26.25 4.34075 26.4344 4.01256 26.7626C3.68437 27.0908 3.5 27.5359 3.5 28C3.5 28.4641 3.68437 28.9092 4.01256 29.2374C4.34075 29.5656 4.78587 29.75 5.25 29.75H9.065C9.32631 30.4839 9.74769 31.1505 10.2986 31.7014C10.8495 32.2523 11.5161 32.6737 12.25 32.935V36.75C12.25 37.2141 12.4344 37.6592 12.7626 37.9874C13.0908 38.3156 13.5359 38.5 14 38.5C14.4641 38.5 14.9092 38.3156 15.2374 37.9874C15.5656 37.6592 15.75 37.2141 15.75 36.75V33.25H19.25V36.75C19.25 37.2141 19.4344 37.6592 19.7626 37.9874C20.0908 38.3156 20.5359 38.5 21 38.5C21.4641 38.5 21.9092 38.3156 22.2374 37.9874C22.5656 37.6592 22.75 37.2141 22.75 36.75V33.25H26.25V36.75C26.25 37.2141 26.4344 37.6592 26.7626 37.9874C27.0908 38.3156 27.5359 38.5 28 38.5C28.4641 38.5 28.9092 38.3156 29.2374 37.9874C29.5656 37.6592 29.75 37.2141 29.75 36.75V32.935C30.4839 32.6737 31.1505 32.2523 31.7014 31.7014C32.2523 31.1505 32.6737 30.4839 32.935 29.75H36.75C37.2141 29.75 37.6592 29.5656 37.9874 29.2374C38.3156 28.9092 38.5 28.4641 38.5 28C38.5 27.5359 38.3156 27.0908 37.9874 26.7626C37.6592 26.4344 37.2141 26.25 36.75 26.25H33.25V22.75H36.75ZM29.75 28C29.75 28.4641 29.5656 28.9092 29.2374 29.2374C28.9092 29.5656 28.4641 29.75 28 29.75H14C13.5359 29.75 13.0908 29.5656 12.7626 29.2374C12.4344 28.9092 12.25 28.4641 12.25 28V14C12.25 13.5359 12.4344 13.0908 12.7626 12.7626C13.0908 12.4344 13.5359 12.25 14 12.25H28C28.4641 12.25 28.9092 12.4344 29.2374 12.7626C29.5656 13.0908 29.75 13.5359 29.75 14V28Z" fill="#757575"/>
</svg>
