<svg width="50" height="50" viewBox="0 0 50 50" fill="none" xmlns="http://www.w3.org/2000/svg">
<path d="M40.1458 11.1043C37.375 9.81266 34.375 8.87516 31.25 8.3335C31.1951 8.33428 31.1426 8.35674 31.1042 8.396C30.7292 9.0835 30.2917 9.97933 30 10.6668C26.6854 10.1671 23.3146 10.1671 20 10.6668C19.7083 9.9585 19.2708 9.0835 18.875 8.396C18.8542 8.35433 18.7917 8.3335 18.7292 8.3335C15.6042 8.87516 12.625 9.81266 9.83334 11.1043C9.8125 11.1043 9.79167 11.1252 9.77084 11.146C4.10417 19.6252 2.54167 27.8752 3.31251 36.0418C3.31251 36.0835 3.33334 36.1252 3.37501 36.146C7.125 38.896 10.7292 40.5627 14.2917 41.6668C14.3542 41.6877 14.4167 41.6668 14.4375 41.6252C15.2708 40.4793 16.0208 39.271 16.6667 38.0002C16.7083 37.9168 16.6667 37.8335 16.5833 37.8127C15.3958 37.3543 14.2708 36.8127 13.1667 36.1877C13.0833 36.146 13.0833 36.021 13.1458 35.9585C13.375 35.7918 13.6042 35.6043 13.8333 35.4377C13.875 35.396 13.9375 35.396 13.9792 35.4168C21.1458 38.6877 28.875 38.6877 35.9583 35.4168C36 35.396 36.0625 35.396 36.1042 35.4377C36.3333 35.6252 36.5625 35.7918 36.7917 35.9793C36.875 36.0418 36.875 36.1668 36.7708 36.2085C35.6875 36.8543 34.5417 37.3752 33.3542 37.8335C33.2708 37.8543 33.25 37.9585 33.2708 38.021C33.9375 39.2918 34.6875 40.5002 35.5 41.646C35.5625 41.6668 35.625 41.6877 35.6875 41.6668C39.2708 40.5627 42.875 38.896 46.625 36.146C46.6667 36.1252 46.6875 36.0835 46.6875 36.0418C47.6042 26.6043 45.1667 18.4168 40.2292 11.146C40.2083 11.1252 40.1875 11.1043 40.1458 11.1043ZM17.75 31.0627C15.6042 31.0627 13.8125 29.0835 13.8125 26.646C13.8125 24.2085 15.5625 22.2293 17.75 22.2293C19.9583 22.2293 21.7083 24.2293 21.6875 26.646C21.6875 29.0835 19.9375 31.0627 17.75 31.0627ZM32.2708 31.0627C30.125 31.0627 28.3333 29.0835 28.3333 26.646C28.3333 24.2085 30.0833 22.2293 32.2708 22.2293C34.4792 22.2293 36.2292 24.2293 36.2083 26.646C36.2083 29.0835 34.4792 31.0627 32.2708 31.0627Z" fill="#757575"/>
</svg>
