<svg width="55" height="55" viewBox="0 0 55 55" fill="none" xmlns="http://www.w3.org/2000/svg">
<path d="M44.1934 25.0562C44.1987 25.0723 44.2041 25.083 44.2095 25.0991C44.2041 25.0884 44.1987 25.0723 44.1934 25.0562ZM44.8325 27.2852C44.8379 27.3066 44.8433 27.3335 44.8486 27.355C44.8433 27.3335 44.8379 27.312 44.8325 27.2852ZM44.6606 26.5278C44.666 26.5439 44.6714 26.5654 44.6768 26.5815C44.6714 26.5654 44.666 26.5493 44.6606 26.5278ZM44.3223 25.3945C44.3276 25.416 44.3384 25.4375 44.3437 25.459C44.3384 25.4429 44.3276 25.4214 44.3223 25.3945ZM31.9419 35.8789C31.9419 35.8735 31.9365 35.8735 31.9365 35.8682C31.9365 35.8735 31.9365 35.8789 31.9419 35.8789ZM33.8594 35.2612C33.8433 35.272 33.8325 35.2881 33.8164 35.2988C33.8271 35.2827 33.8433 35.272 33.8594 35.2612ZM44.564 26.1572C44.5693 26.1787 44.5747 26.1948 44.5801 26.2163C44.5747 26.2002 44.5693 26.1787 44.564 26.1572ZM33.4995 35.6318C33.4565 35.6855 33.4136 35.75 33.3706 35.8091C33.4136 35.7446 33.4565 35.6855 33.4995 35.6318ZM43.1729 23.0044C43.1782 23.0151 43.189 23.0259 43.1943 23.0366C43.189 23.0312 43.1836 23.0205 43.1729 23.0044ZM33.6445 35.46C33.6284 35.4814 33.6069 35.4976 33.5908 35.519C33.6069 35.5029 33.6284 35.4814 33.6445 35.46ZM31.8076 35.5674C31.8022 35.5566 31.8022 35.5513 31.7969 35.5405C31.8022 35.5513 31.8076 35.5566 31.8076 35.5674ZM32.9517 36.647C32.9409 36.6685 32.9355 36.6899 32.9248 36.7168C32.9355 36.6953 32.9409 36.6738 32.9517 36.647ZM43.5435 23.6436C43.5542 23.665 43.5703 23.6919 43.5811 23.7134C43.5703 23.6865 43.5542 23.665 43.5435 23.6436ZM33.564 35.5566C33.5425 35.5781 33.5264 35.605 33.5049 35.6265C33.5264 35.5996 33.5425 35.5781 33.564 35.5566ZM37.5762 37.7319C37.5708 37.7266 37.5654 37.7212 37.5654 37.7158C37.5654 37.7266 37.5708 37.7266 37.5762 37.7319ZM33.9561 35.1807C33.9453 35.1914 33.9346 35.1968 33.9238 35.2075C33.9346 35.2021 33.9453 35.1914 33.9561 35.1807ZM32.8013 37.082C32.7744 37.0605 32.7476 37.0337 32.7207 37.0068C32.7476 37.0337 32.7744 37.0552 32.8013 37.082ZM45.4395 30.6958L45.1494 30.4917L45.5898 30.7979L45.4395 30.6958ZM31.6895 35.2183C31.6841 35.2021 31.6787 35.1914 31.6787 35.1753C31.6841 35.186 31.6895 35.2021 31.6895 35.2183ZM33.1235 36.2495C33.1826 36.1313 33.2417 36.0239 33.3008 35.9165C33.2095 36.0723 33.1182 36.2388 33.0376 36.4268C33.0645 36.3677 33.0967 36.3086 33.1235 36.2495ZM42.292 21.7905C42.3135 21.8174 42.3296 21.8389 42.3511 21.8657C42.335 21.8389 42.3135 21.812 42.292 21.7905ZM31.7485 35.3955C31.7432 35.3848 31.7378 35.374 31.7378 35.3579C31.7432 35.374 31.7432 35.3848 31.7485 35.3955ZM45.1118 29.4819C45.1118 29.5195 45.1172 29.5518 45.1172 29.5894C45.1172 29.5571 45.1118 29.5195 45.1118 29.4819ZM32.8711 36.8618C32.8657 36.8726 32.8604 36.8887 32.8604 36.8994C32.8657 36.8887 32.8711 36.8726 32.8711 36.8618ZM44.9561 27.9941C44.9614 28.0156 44.9614 28.0317 44.9668 28.0532C44.9614 28.0371 44.9614 28.0156 44.9561 27.9941ZM45.085 29.1113C45.0903 29.1489 45.0903 29.1919 45.0957 29.2295C45.0903 29.1919 45.085 29.1543 45.085 29.1113ZM42.7646 22.3975C42.7754 22.4136 42.7861 22.4297 42.8022 22.4458C42.7915 22.4351 42.7808 22.4136 42.7646 22.3975ZM45.0527 28.7568C45.0581 28.7891 45.0581 28.8213 45.0635 28.8589C45.0581 28.8267 45.0581 28.7891 45.0527 28.7568Z" fill="white"/>
<path d="M44.1826 34.6382L44.9561 34.9819C45.6221 35.2773 46.1108 35.9648 46.4546 37.082C46.8843 36.7007 47.3623 36.0562 47.6309 34.9766C48.2056 32.6885 45.6113 30.8193 45.5845 30.7979L45.144 30.4917L45.1279 29.9546C45.1226 29.8311 45.1172 29.7129 45.1118 29.5947C45.1118 29.5571 45.1064 29.5195 45.1064 29.4873C45.1011 29.4014 45.0957 29.3208 45.0903 29.2349C45.085 29.1973 45.085 29.1543 45.0796 29.1167C45.0742 29.0308 45.0635 28.9448 45.0581 28.8643C45.0527 28.832 45.0527 28.7998 45.0474 28.7622C45.0366 28.644 45.0205 28.5312 45.0098 28.4185L44.9614 28.064C44.9561 28.0425 44.9561 28.0264 44.9507 28.0049C44.9346 27.9082 44.9238 27.8115 44.9077 27.7202L44.8916 27.6396L44.8433 27.3657C44.8379 27.3442 44.8325 27.3174 44.8271 27.2959C44.8057 27.1831 44.7842 27.0757 44.7573 26.9629C44.7305 26.8394 44.6982 26.7158 44.6714 26.5923C44.666 26.5762 44.6606 26.5547 44.6553 26.5386C44.6284 26.4312 44.6016 26.3291 44.5693 26.2271C44.564 26.2056 44.5586 26.1895 44.5532 26.168C44.4834 25.9316 44.4136 25.7007 44.333 25.4751C44.3276 25.4536 44.3169 25.4321 44.3115 25.4106C44.2739 25.3086 44.2417 25.2119 44.2041 25.1152C44.1987 25.0991 44.1934 25.0884 44.188 25.0723C44.145 24.9595 44.1021 24.8521 44.0537 24.7393C44.0483 24.7231 44.043 24.707 44.0322 24.6963C43.9946 24.605 43.9517 24.5083 43.9087 24.417C43.898 24.3955 43.8872 24.3687 43.8765 24.3472C43.8281 24.2451 43.7798 24.1377 43.7314 24.0356C43.6777 23.9336 43.624 23.8262 43.5703 23.7241C43.5596 23.7026 43.5435 23.6758 43.5327 23.6543C43.4897 23.5737 43.4414 23.4932 43.3984 23.4126C43.3877 23.3911 43.3716 23.3696 43.3608 23.3481C43.3018 23.2515 43.248 23.1548 43.1836 23.0581C43.1782 23.0474 43.1675 23.0366 43.1621 23.0259C43.1084 22.9399 43.0547 22.8594 43.001 22.7734C42.9849 22.7466 42.9688 22.7197 42.9473 22.6982C42.8936 22.623 42.8398 22.5425 42.7861 22.4673C42.7754 22.4512 42.7647 22.4351 42.7485 22.4189C42.6841 22.3276 42.6196 22.2417 42.5498 22.1504L42.5015 22.0859C42.4478 22.0161 42.394 21.9463 42.3403 21.8818C42.3188 21.855 42.3027 21.8335 42.2813 21.8066C42.2114 21.7207 42.1362 21.6348 42.0664 21.5488C41.1104 20.4585 40.1543 19.8086 39.6172 19.4971C39.0854 19.8086 38.1294 20.4585 37.168 21.5488C35.2559 23.7295 34.2246 26.5601 34.1118 29.9707L34.0957 30.5078L33.6553 30.814C33.6338 30.8301 31.0342 32.6992 31.6143 34.9873C31.6304 35.0571 31.6519 35.1216 31.668 35.186C31.6733 35.2021 31.6787 35.2129 31.6787 35.229C31.6948 35.2773 31.7056 35.3257 31.7217 35.374C31.727 35.3848 31.7324 35.3955 31.7324 35.4116L31.7808 35.5566C31.7861 35.5674 31.7861 35.5728 31.7915 35.5835C31.8076 35.6318 31.8291 35.6802 31.8452 35.7285C31.8452 35.7339 31.8506 35.7393 31.8506 35.7446L31.915 35.8896C31.915 35.895 31.9204 35.895 31.9204 35.9004C31.9419 35.9487 31.9634 35.9971 31.9902 36.0454C32.0386 36.1421 32.0923 36.2334 32.1406 36.3193C32.2964 36.5718 32.4575 36.7759 32.6187 36.9424L32.6294 36.9531L32.6992 37.0229C32.7261 37.0498 32.7529 37.0713 32.7798 37.0981C32.8013 37.0391 32.8174 36.9746 32.8389 36.9155C32.8442 36.9048 32.8496 36.8887 32.8496 36.8779C32.8657 36.8296 32.8818 36.7813 32.9033 36.7329C32.9141 36.7114 32.9194 36.6846 32.9302 36.6631C32.9463 36.6255 32.957 36.5879 32.9731 36.5503C32.9839 36.5181 33 36.4858 33.0161 36.4536C33.0161 36.4482 33.0215 36.4482 33.0215 36.4429C33.1021 36.2549 33.1934 36.083 33.2847 35.9326L33.29 35.9272L33.3545 35.8306L33.3599 35.8252C33.4028 35.7607 33.4458 35.7017 33.4888 35.6479L33.4941 35.6426C33.5103 35.6211 33.5317 35.5942 33.5532 35.5728C33.564 35.562 33.5747 35.5513 33.5801 35.5405C33.5962 35.519 33.6177 35.4976 33.6338 35.4814L33.6768 35.4385C33.7036 35.4116 33.7251 35.3848 33.752 35.3633C33.7681 35.3472 33.7842 35.3311 33.8057 35.3149C33.8218 35.3042 33.8325 35.2881 33.8486 35.2773L33.9131 35.229C33.9238 35.2183 33.9346 35.2129 33.9453 35.2021L34.042 35.1377C34.0527 35.1323 34.0635 35.127 34.0742 35.1162L34.1548 35.0679L34.187 35.0518C34.2246 35.0303 34.2568 35.0142 34.2944 34.998L35.0679 34.6543L35.5835 35.3257C35.6855 35.4546 35.7876 35.5889 35.895 35.7231C36.4053 36.373 36.9531 37.0498 37.3506 37.5063C37.4043 37.5654 37.4526 37.6191 37.4956 37.6729C37.5171 37.6943 37.5332 37.7158 37.5547 37.7373C37.5601 37.7427 37.5654 37.748 37.5654 37.7534C37.5869 37.7749 37.603 37.7964 37.6191 37.8125H41.626C42.0718 37.3398 42.9526 36.2549 43.667 35.3257L44.1826 34.6382ZM39.5044 29.9331C37.8286 29.9331 36.4697 28.5688 36.4697 26.8984C36.4697 25.2227 37.834 23.8638 39.5044 23.8638C41.1748 23.8638 42.5391 25.228 42.5391 26.8984C42.5391 28.5688 41.1802 29.9331 39.5044 29.9331Z" fill="#E6E6E6"/>
<path d="M35.6533 20.0181C37.3989 18.0684 39.1338 17.311 39.2036 17.2788L39.6279 17.0962L40.0522 17.2788C40.1274 17.311 41.8623 18.0684 43.6025 20.0181C44.1934 20.6787 44.8325 21.5273 45.4072 22.5908C45.2891 15.27 39.2896 9.3457 31.9365 9.3457C26.5225 9.3457 21.6777 12.5684 19.5615 17.4722C20.0181 17.6333 20.4585 17.8267 20.8882 18.0469C22.3599 18.8096 23.6543 19.916 24.6372 21.2534C24.9863 21.7314 24.8843 22.4028 24.4062 22.7573C23.9282 23.1064 23.2568 23.0044 22.9023 22.5264C21.2749 20.3135 18.6646 18.9922 15.9253 18.9922C11.1504 18.9922 7.27246 22.8755 7.27246 27.645C7.27246 32.4199 11.1558 36.2979 15.9253 36.2979H29.7881C29.6968 36.0454 29.6108 35.7822 29.541 35.4922C28.7837 32.4897 31.0181 30.207 32.001 29.3745C32.2749 24.7231 34.1226 21.7261 35.6533 20.0181ZM27.543 14.1528C25.7705 15.168 24.8897 16.5483 24.8789 16.5645C24.7769 16.7256 24.5996 16.8169 24.4224 16.8169C24.3257 16.8169 24.2236 16.79 24.1377 16.7363C23.8853 16.5806 23.8101 16.2476 23.9712 15.9951C24.0142 15.9307 25.0078 14.373 27.0112 13.2236C28.8589 12.1655 31.9419 11.2686 36.1421 13.0034C36.416 13.1162 36.5449 13.4331 36.4321 13.707C36.3193 13.981 36.0024 14.1099 35.7285 13.9971C32.6831 12.7349 29.9277 12.7886 27.543 14.1528Z" fill="white"/>
<path d="M34.7241 38.2046C34.8477 38.1831 34.9712 38.1616 35.0894 38.1348C34.998 38.0273 34.9121 37.9199 34.8262 37.8125C34.7886 37.936 34.751 38.0703 34.7241 38.2046Z" fill="#005BFF"/>
<path d="M44.4351 37.8125C44.5264 38.124 44.6016 38.4785 44.6499 38.8062L44.7949 39.9126L45.896 39.7246C46.0142 39.7031 48.791 39.1929 49.7202 35.4976C50.4775 32.4951 48.2432 30.2124 47.2603 29.3799C47.2119 28.5635 47.1152 27.8008 46.981 27.0811C47.3677 25.7114 47.5664 24.2827 47.5664 22.8218C47.5664 18.6484 45.939 14.7222 42.9902 11.7734C40.0361 8.81934 36.1152 7.19727 31.9419 7.19727C25.5449 7.19727 19.8301 11.0806 17.4561 16.9512C16.9512 16.8813 16.4409 16.8438 15.936 16.8438C9.97949 16.8438 5.13477 21.6885 5.13477 27.645C5.13477 33.6016 9.97949 38.4463 15.936 38.4463H31.1362C32.189 39.499 33.3008 39.7085 33.376 39.7192L34.4717 39.9019L34.6167 38.8008C34.6436 38.6021 34.6812 38.3979 34.7295 38.1992C34.7617 38.0649 34.7939 37.9307 34.8315 37.8071C34.9175 37.9146 35.0088 38.022 35.0947 38.1294C35.6587 38.8169 36.2441 39.4829 36.5772 39.73L36.8618 39.9394H42.4102L42.6948 39.73C43.0708 39.4507 43.7959 38.5967 44.4351 37.8125ZM29.541 35.4976C29.6108 35.7822 29.6968 36.0508 29.7881 36.3032H15.9253C11.1504 36.3032 7.27246 32.4199 7.27246 27.6504C7.27246 22.8755 11.1558 18.9976 15.9253 18.9976C18.6699 18.9976 21.2749 20.3188 22.9023 22.5317C23.2515 23.0098 23.9282 23.1118 24.4062 22.7627C24.8843 22.4136 24.9863 21.7368 24.6372 21.2588C23.6543 19.9214 22.3599 18.8149 20.8882 18.0522C20.4585 17.832 20.0181 17.6387 19.5615 17.4775C21.6777 12.5684 26.5225 9.3457 31.9365 9.3457C39.2895 9.3457 45.2891 15.27 45.4126 22.5962C44.8379 21.5327 44.1987 20.6787 43.6079 20.0234C41.8623 18.0737 40.1274 17.3164 40.0576 17.2842L39.6333 17.1016L39.209 17.2842C39.1338 17.3164 37.3989 18.0737 35.6587 20.0234C34.1279 21.7314 32.2803 24.7285 32.0063 29.3853C31.0181 30.2124 28.7837 32.4951 29.541 35.4976ZM41.626 37.7964H37.6299C37.6138 37.7749 37.5923 37.7588 37.5762 37.7373C37.5708 37.7319 37.5654 37.7266 37.5654 37.7212C37.5439 37.6997 37.5278 37.6782 37.5063 37.6567C37.0337 37.1304 36.2441 36.1582 35.5942 35.3096L35.0786 34.6382L34.3052 34.9819C34.2676 34.998 34.23 35.0142 34.1978 35.0356L34.1655 35.0518L34.085 35.1001C34.0742 35.1055 34.0635 35.1108 34.0527 35.1216L33.9561 35.186C33.9453 35.1968 33.9346 35.2021 33.9238 35.2129L33.8594 35.2612C33.8433 35.272 33.8325 35.2881 33.8164 35.2988C33.8003 35.3149 33.7842 35.3311 33.7627 35.3472C33.7358 35.374 33.709 35.3955 33.6875 35.4224L33.6445 35.4653C33.6284 35.4868 33.6069 35.5029 33.5908 35.5244C33.5801 35.5352 33.5693 35.5459 33.564 35.5566C33.5425 35.5781 33.5264 35.605 33.5049 35.6265L33.4995 35.6318L33.3706 35.8091L33.3652 35.8145L33.3008 35.9111L33.2954 35.9165C33.231 36.0186 33.1719 36.1313 33.1182 36.2495C33.0913 36.3086 33.0645 36.3677 33.0322 36.4321C33.0322 36.4375 33.0269 36.4375 33.0269 36.4429C33.0107 36.4751 33 36.5073 32.9839 36.5395C32.9678 36.5771 32.9517 36.6147 32.9409 36.6523C32.9302 36.6738 32.9248 36.6953 32.9141 36.7222C32.8979 36.7705 32.8765 36.8188 32.8604 36.8672C32.855 36.8779 32.8496 36.894 32.8496 36.9048C32.8281 36.9639 32.812 37.0229 32.7905 37.0874C32.7637 37.0659 32.7368 37.0391 32.71 37.0122L32.6401 36.9424L32.6294 36.9316C32.4146 36.7114 32.189 36.416 31.9956 36.0293C31.9741 35.981 31.9473 35.9326 31.9258 35.8843C31.9258 35.8789 31.9204 35.8789 31.9204 35.8735L31.856 35.7285C31.856 35.7231 31.8506 35.7178 31.8506 35.7124C31.8291 35.6641 31.813 35.6157 31.7969 35.5674C31.7915 35.5566 31.7915 35.5513 31.7861 35.5405L31.7378 35.3955C31.7324 35.3848 31.7271 35.374 31.7271 35.3579C31.7109 35.3096 31.6948 35.2612 31.6841 35.2129C31.6787 35.1968 31.6733 35.186 31.6733 35.1699C31.6572 35.1055 31.6357 35.041 31.6196 34.9712C31.0449 32.6831 33.6392 30.814 33.6606 30.7979L34.1011 30.4917L34.1172 29.9546C34.23 26.5439 35.2559 23.7134 37.1733 21.5327C38.1348 20.4424 39.0908 19.7925 39.6226 19.481C40.1543 19.7925 41.1104 20.4424 42.0718 21.5327C42.147 21.6187 42.2168 21.7046 42.2866 21.7905C42.3081 21.8174 42.3242 21.8389 42.3457 21.8657C42.3994 21.9355 42.4531 22 42.5068 22.0698L42.5552 22.1343C42.625 22.2202 42.6895 22.3115 42.7539 22.4028C42.7646 22.4189 42.7754 22.4351 42.7915 22.4512C42.8452 22.5264 42.8989 22.6016 42.9526 22.6821C42.9688 22.709 42.9849 22.7358 43.0064 22.7573C43.0601 22.8379 43.1138 22.9238 43.1675 23.0098C43.1729 23.0205 43.1836 23.0312 43.189 23.042L43.3662 23.332C43.377 23.3535 43.3931 23.375 43.4038 23.3965C43.4521 23.4771 43.4951 23.5576 43.5381 23.6382C43.5488 23.6597 43.5649 23.6865 43.5757 23.708C43.6294 23.8101 43.6831 23.9121 43.7368 24.0195C43.7852 24.1216 43.8389 24.2236 43.8818 24.3311C43.8926 24.3525 43.9033 24.3794 43.9141 24.4009C43.957 24.4922 43.9946 24.5835 44.0376 24.6802C44.043 24.6963 44.0483 24.7124 44.0591 24.7231C44.1074 24.8306 44.1504 24.9434 44.1934 25.0562C44.1987 25.0723 44.2041 25.083 44.2095 25.0991C44.2471 25.1958 44.2847 25.2978 44.3169 25.3945C44.3223 25.416 44.333 25.4375 44.3384 25.459C44.4189 25.6846 44.4888 25.9209 44.5586 26.1519C44.564 26.1733 44.5693 26.1895 44.5747 26.2109C44.6016 26.313 44.6338 26.4204 44.6606 26.5225C44.666 26.5386 44.6714 26.5601 44.6768 26.5762C44.7358 26.8071 44.7896 27.0435 44.8325 27.2798C44.8379 27.3013 44.8433 27.3281 44.8486 27.3496L44.897 27.6235L44.9131 27.7041C44.9292 27.8008 44.9453 27.8921 44.9561 27.9888C44.9614 28.0103 44.9614 28.0264 44.9668 28.0479L45.0151 28.4023C45.0312 28.5151 45.042 28.6333 45.0527 28.7461C45.0581 28.7783 45.0581 28.8105 45.0635 28.8481C45.0688 28.9341 45.0796 29.0146 45.085 29.1006C45.0903 29.1382 45.0903 29.1812 45.0957 29.2187C45.1011 29.3047 45.1064 29.3853 45.1118 29.4712C45.1118 29.5088 45.1172 29.541 45.1172 29.5786C45.1226 29.6968 45.1279 29.8203 45.1333 29.9385L45.1494 30.4756L45.4448 30.6797L45.5898 30.7817C45.6167 30.7978 48.2109 32.667 47.6362 34.9604C47.3623 36.04 46.8896 36.6846 46.46 37.0659C46.1162 35.9487 45.6221 35.2612 44.9614 34.9658L44.188 34.6221L43.6724 35.2935C42.958 36.2388 42.0718 37.3237 41.626 37.7964Z" fill="#005BFF"/>
<path d="M32.9248 36.7168C32.9087 36.7651 32.8872 36.8135 32.8711 36.8618C32.8926 36.8135 32.9087 36.7651 32.9248 36.7168ZM32.9946 36.5395C32.9785 36.5771 32.9624 36.6147 32.9517 36.6523C32.9678 36.6094 32.9785 36.5718 32.9946 36.5395ZM37.5601 37.7212C37.5386 37.6997 37.5225 37.6782 37.501 37.6567C37.5225 37.6782 37.5439 37.6997 37.5601 37.7212ZM33.9185 35.2075L33.854 35.2559C33.8809 35.2397 33.9023 35.2236 33.9185 35.2075ZM33.8164 35.2935C33.8003 35.3096 33.7842 35.3257 33.7627 35.3418C33.7788 35.3257 33.8003 35.3096 33.8164 35.2935ZM34.2998 34.9819C34.2622 34.998 34.2246 35.0142 34.1924 35.0356C34.23 35.0142 34.2676 34.998 34.2998 34.9819ZM37.6299 37.7964C37.6138 37.7749 37.5923 37.7588 37.5762 37.7373C37.5923 37.7534 37.6138 37.7749 37.6299 37.7964ZM33.0376 36.4321C33.0376 36.4375 33.0322 36.4375 33.0322 36.4429C33.0376 36.4375 33.0376 36.4375 33.0376 36.4321ZM33.376 35.8091L33.3706 35.8145C33.3706 35.8145 33.3706 35.8091 33.376 35.8091ZM33.3061 35.9111L33.3008 35.9165C33.3062 35.9165 33.3061 35.9165 33.3061 35.9111ZM33.5908 35.519C33.5801 35.5298 33.5693 35.5405 33.564 35.5513C33.5747 35.5459 33.5801 35.5298 33.5908 35.519ZM43.9194 24.4009C43.9624 24.4922 44 24.5835 44.043 24.6802C44.0054 24.5889 43.9624 24.4922 43.9194 24.4009ZM43.7422 24.0195C43.7905 24.1216 43.8442 24.2236 43.8872 24.3311C43.8389 24.229 43.7905 24.1216 43.7422 24.0195ZM44.5801 26.2163C44.6069 26.3184 44.6392 26.4258 44.666 26.5278C44.6338 26.4258 44.6069 26.3237 44.5801 26.2163ZM44.9131 27.7095C44.9292 27.8062 44.9453 27.8975 44.9561 27.9941C44.9453 27.9028 44.9292 27.8062 44.9131 27.7095ZM44.3437 25.4644C44.4243 25.6899 44.4941 25.9263 44.564 26.1572C44.4941 25.9209 44.4243 25.6899 44.3437 25.4644ZM44.0645 24.7231C44.1128 24.8306 44.1558 24.9434 44.1987 25.0562C44.1504 24.9487 44.1074 24.8359 44.0645 24.7231ZM32.0063 36.0239C32.1997 36.4053 32.4199 36.7007 32.6401 36.9263C32.479 36.7598 32.3125 36.5557 32.1621 36.3032C32.1084 36.2173 32.0601 36.126 32.0063 36.0239Z" fill="#005BFF"/>
<path d="M35.9004 35.707C35.793 35.5728 35.6909 35.4385 35.5889 35.3096C36.2388 36.1528 37.0283 37.1304 37.501 37.6567C37.4526 37.6084 37.4043 37.5493 37.356 37.4902C36.9585 37.0337 36.4106 36.3623 35.9004 35.707ZM44.8325 27.2852C44.7842 27.0488 44.7305 26.8125 44.6768 26.5815C44.709 26.7051 44.7358 26.8286 44.7627 26.9521C44.7896 27.0649 44.811 27.1777 44.8325 27.2852ZM45.0151 28.4131C45.0312 28.5259 45.042 28.644 45.0527 28.7568C45.042 28.644 45.0259 28.5259 45.0151 28.4131ZM45.0957 29.2295C45.1011 29.3154 45.1064 29.396 45.1118 29.4819C45.1064 29.4014 45.1011 29.3154 45.0957 29.2295ZM45.1172 29.5947C45.1226 29.7129 45.1279 29.8364 45.1333 29.9546C45.1279 29.8311 45.1226 29.7129 45.1172 29.5947ZM31.7969 35.5405L31.7485 35.3955C31.7646 35.4492 31.7808 35.4976 31.7969 35.5405ZM31.6787 35.1753C31.6626 35.1108 31.6411 35.0464 31.625 34.9766C31.6411 35.041 31.6572 35.1108 31.6787 35.1753ZM32.0063 36.0239C31.9849 35.9756 31.958 35.9272 31.9365 35.8789C31.9634 35.9326 31.9849 35.9756 32.0063 36.0239ZM42.3564 21.8604C42.4102 21.9302 42.4639 21.9946 42.5176 22.0645C42.4639 22 42.4102 21.9302 42.3564 21.8604ZM43.4092 23.4019C43.4575 23.4824 43.5005 23.563 43.5435 23.6436C43.5005 23.5576 43.4575 23.4771 43.4092 23.4019ZM42.5659 22.1289C42.6357 22.2148 42.7002 22.3062 42.7646 22.3975C42.7002 22.3115 42.6357 22.2202 42.5659 22.1289Z" fill="#005BFF"/>
<path d="M39.5044 24.9326C38.4248 24.9326 37.5439 25.8135 37.5439 26.8931C37.5439 27.9727 38.4248 28.8535 39.5044 28.8535C40.584 28.8535 41.4648 27.9727 41.4648 26.8931C41.4648 25.8135 40.584 24.9326 39.5044 24.9326Z" fill="white"/>
<path d="M39.5044 23.8584C37.8286 23.8584 36.4697 25.2227 36.4697 26.8931C36.4697 28.5688 37.834 29.9277 39.5044 29.9277C41.1748 29.9277 42.5391 28.5635 42.5391 26.8931C42.5391 25.2227 41.1802 23.8584 39.5044 23.8584ZM39.5044 28.8589C38.4248 28.8589 37.5439 27.978 37.5439 26.8984C37.5439 25.8188 38.4248 24.938 39.5044 24.938C40.584 24.938 41.4648 25.8188 41.4648 26.8984C41.4648 27.978 40.584 28.8589 39.5044 28.8589ZM38.0811 40.9761C37.7856 40.9761 37.5439 41.2178 37.5439 41.5132V46.852C37.5439 47.1475 37.7856 47.3892 38.0811 47.3892C38.3765 47.3892 38.6182 47.1475 38.6182 46.852V41.5132C38.6182 41.2178 38.3765 40.9761 38.0811 40.9761Z" fill="#06F3FF"/>
<path d="M41.3896 40.439C40.7988 40.439 40.3154 40.9224 40.3154 41.5132V43.0601C40.3154 43.6509 40.7988 44.1343 41.3896 44.1343C41.9805 44.1343 42.4639 43.6509 42.4639 43.0601V41.5132C42.4639 40.917 41.9805 40.439 41.3896 40.439ZM36.4321 13.7017C36.5449 13.4278 36.416 13.1109 36.1421 12.9981C31.9419 11.2632 28.8589 12.1602 27.0112 13.2183C25.0078 14.3677 24.0142 15.9253 23.9712 15.9898C23.8154 16.2422 23.8906 16.5699 24.1377 16.731C24.229 16.7847 24.3257 16.8116 24.4224 16.8116C24.5996 16.8116 24.7769 16.7202 24.8789 16.5591C24.8897 16.543 25.7705 15.1626 27.543 14.1475C29.9224 12.7832 32.6777 12.7295 35.7285 13.9864C36.0024 14.1099 36.3193 13.9756 36.4321 13.7017Z" fill="#005BFF"/>
</svg>
